<!-- file:///C:/Users/vinetav/Downloads/PMI%20Project%20Management%20Institute.svg
https://logowik.com/pmi-project-management-institute-logo-vector-svg-pdf-ai-eps-cdr-free-download-12158/download-options.html -->

<svg xmlns="http://www.w3.org/2000/svg" xmlns:xlink="http://www.w3.org/1999/xlink" version="1.0" id="katman_1" x="0px" y="0px" viewBox="0 0 261.6 195" style="enable-background:new 0 0 261.6 195;" xml:space="preserve">
<style type="text/css">
	.st0{fill-rule:evenodd;clip-rule:evenodd;fill:#05BFE0;}
	.st1{fill-rule:evenodd;clip-rule:evenodd;fill:#FF610F;}
	.st2{fill-rule:evenodd;clip-rule:evenodd;fill:#231F20;}
	.st3{fill-rule:evenodd;clip-rule:evenodd;fill:#4F17A8;}
	.st4{fill-rule:evenodd;clip-rule:evenodd;}
	.st5{filter:url(#Adobe_OpacityMaskFilter);}
	.st6{fill-rule:evenodd;clip-rule:evenodd;fill:#FFFFFF;}
	.st7{mask:url(#mask-2_1_);fill-rule:evenodd;clip-rule:evenodd;}
	.st8{filter:url(#Adobe_OpacityMaskFilter_1_);}
	.st9{mask:url(#mask-4_1_);fill-rule:evenodd;clip-rule:evenodd;}
	.st10{filter:url(#Adobe_OpacityMaskFilter_2_);}
	.st11{mask:url(#mask-6_1_);fill-rule:evenodd;clip-rule:evenodd;}
	.st12{filter:url(#Adobe_OpacityMaskFilter_3_);}
	.st13{mask:url(#mask-6_2_);fill-rule:evenodd;clip-rule:evenodd;}
	.st14{filter:url(#Adobe_OpacityMaskFilter_4_);}
	.st15{mask:url(#mask-6_3_);fill-rule:evenodd;clip-rule:evenodd;}
	.st16{filter:url(#Adobe_OpacityMaskFilter_5_);}
	.st17{mask:url(#mask-6_4_);fill-rule:evenodd;clip-rule:evenodd;}
	.st18{filter:url(#Adobe_OpacityMaskFilter_6_);}
	.st19{mask:url(#mask-6_5_);fill-rule:evenodd;clip-rule:evenodd;}
	.st20{filter:url(#Adobe_OpacityMaskFilter_7_);}
	.st21{mask:url(#mask-6_6_);fill-rule:evenodd;clip-rule:evenodd;}
	.st22{filter:url(#Adobe_OpacityMaskFilter_8_);}
	.st23{mask:url(#mask-6_7_);fill-rule:evenodd;clip-rule:evenodd;}
	.st24{filter:url(#Adobe_OpacityMaskFilter_9_);}
	.st25{mask:url(#mask-6_8_);fill-rule:evenodd;clip-rule:evenodd;}
	.st26{filter:url(#Adobe_OpacityMaskFilter_10_);}
	.st27{mask:url(#mask-6_9_);fill-rule:evenodd;clip-rule:evenodd;}
	.st28{filter:url(#Adobe_OpacityMaskFilter_11_);}
	.st29{mask:url(#mask-6_10_);fill-rule:evenodd;clip-rule:evenodd;}
	.st30{filter:url(#Adobe_OpacityMaskFilter_12_);}
	.st31{mask:url(#mask-6_11_);fill-rule:evenodd;clip-rule:evenodd;}
</style>
<g id="logo_x2F_pmi">
	<g id="Logo">
		<path id="Fill-1" class="st0" d="M46.8,114c0-4.1,3.4-7.5,7.5-7.5h0V99h-30v7.5c4.1,0,7.5,3.4,7.5,7.5v0c0,4.1-3.4,7.5-7.5,7.5    v7.5h30v-7.5C50.2,121.5,46.8,118.2,46.8,114L46.8,114z"/>
		<path id="Fill-3" class="st1" d="M71.3,82c0-8.3-6.7-15-15-15v30C64.6,97,71.3,90.3,71.3,82c0,8.3,6.7,15,15,15V67    C78,67,71.3,73.7,71.3,82"/>
		<path id="Fill-5" class="st2" d="M44,82h-14v-9.4h14c2.6,0,4.7,2.1,4.7,4.7S46.6,82,44,82L44,82z M44.9,67c-0.3,0-0.6,0-0.9,0    H24.3v30h5.6v-9.4H44c0.3,0,0.6,0,0.9,0c5.7-0.5,9.9-5.5,9.3-11.2C53.8,71.4,49.9,67.5,44.9,67L44.9,67z"/>
		<polygon id="Fill-7" class="st3" points="56.3,129 56.3,120 65.3,129   "/>
		<polygon id="Fill-9" class="st3" points="73.9,129 57.3,112.4 57.3,104 82.3,129   "/>
		<polygon id="Fill-11" class="st3" points="87.3,99 87.3,108 78.3,99   "/>
		<polygon id="Fill-13" class="st3" points="86.3,124 61.3,99 69.7,99 86.3,115.6   "/>
		<path id="Fill-15" class="st4" d="M90,127h0.4l0.7,1.6l0.7-1.6h0.4v2H92v-1.6l-0.7,1.6H91l-0.7-1.6v1.6H90L90,127z M88.9,127.3    h-0.6V127h1.5v0.3h-0.6v1.7h-0.3V127.3z"/>
		<path id="Fill-17" class="st4" d="M108.8,73.7c0.5,0,1-0.1,1.5-0.3c0.4-0.2,0.8-0.5,1-0.9c0.2-0.4,0.4-0.8,0.4-1.2    c0-0.5-0.1-0.9-0.4-1.3c-0.3-0.4-0.6-0.7-1-0.9c-0.5-0.2-1-0.3-1.5-0.3h-2.9v4.9L108.8,73.7z M102.3,66h7.1c1,0,1.9,0.2,2.8,0.6    c0.9,0.4,1.6,1,2.2,1.8c0.6,0.8,0.9,1.8,0.8,2.9c0,1-0.3,1.9-0.8,2.7c-0.5,0.8-1.3,1.5-2.1,1.9c-1,0.5-2,0.7-3.1,0.7h-3.5V82h-3.6    L102.3,66z"/>
		<path id="Fill-19" class="st4" d="M117.3,70.3h2.6l0.5,1.7c0.3-0.6,0.7-1.2,1.3-1.5c0.6-0.4,1.3-0.5,1.9-0.5    c0.6,0,1.2,0.1,1.8,0.5c0.5,0.3,1,0.8,1.3,1.3c0.3,0.6,0.5,1.2,0.6,1.9l-2.8,0.7c0-0.5-0.2-1-0.6-1.4c-0.3-0.4-0.8-0.6-1.3-0.6    c-0.4,0-0.8,0.1-1.1,0.4c-0.3,0.3-0.6,0.6-0.7,1c-0.2,0.5-0.3,0.9-0.3,1.4V81h-3.3L117.3,70.3z"/>
		<path id="Fill-21" class="st4" d="M135.8,78c0.4-0.2,0.8-0.6,1-1c0.2-0.5,0.4-1,0.4-1.5c0-0.5-0.1-1-0.4-1.5c-0.2-0.4-0.6-0.8-1-1    c-0.4-0.2-0.9-0.4-1.5-0.4c-0.5,0-1,0.1-1.5,0.4c-0.4,0.2-0.8,0.6-1,1c-0.2,0.5-0.4,1-0.4,1.5c0,0.5,0.1,1,0.4,1.5    c0.2,0.4,0.6,0.8,1,1c0.4,0.3,0.9,0.4,1.5,0.4C134.8,78.4,135.3,78.3,135.8,78L135.8,78z M131.2,80.3c-0.9-0.4-1.6-1.1-2.1-1.9    c-0.5-0.9-0.8-1.9-0.8-2.9c0-1,0.2-2,0.8-2.9c0.5-0.8,1.3-1.5,2.2-1.9c2-0.9,4.3-0.9,6.2,0c0.9,0.4,1.6,1.1,2.1,1.9    c0.5,0.9,0.8,1.9,0.8,2.9c0,1-0.2,2-0.8,2.9c-0.5,0.8-1.2,1.5-2.1,1.9C135.4,81.2,133.1,81.2,131.2,80.3L131.2,80.3z"/>
		<g id="Group-25" transform="translate(112.000000, 0.000000)">
			<g id="Clip-24">
			</g>
			<defs>
				<filter id="Adobe_OpacityMaskFilter" filterUnits="userSpaceOnUse" x="24.6" y="65.4" width="8.5" height="21.5">
					<feColorMatrix type="matrix" values="1 0 0 0 0  0 1 0 0 0  0 0 1 0 0  0 0 0 1 0"/>
				</filter>
			</defs>
			<mask maskUnits="userSpaceOnUse" x="24.6" y="65.4" width="8.5" height="21.5" id="mask-2_1_">
				<g class="st5">
					<polygon id="path-1_1_" class="st6" points="24.6,65.4 33.1,65.4 33.1,86.8 24.6,86.8      "/>
				</g>
			</mask>
			<path id="Fill-23" class="st7" d="M29.7,68.6c-0.4-0.4-0.6-0.9-0.6-1.4c0-0.5,0.2-1,0.5-1.4c0.8-0.7,2-0.7,2.8,0     c0.4,0.4,0.6,0.8,0.5,1.3c0,0.5-0.2,1-0.5,1.4C31.7,69.3,30.5,69.3,29.7,68.6L29.7,68.6z M26.1,86.4c-0.6-0.3-1.1-0.7-1.5-1.2     l1.5-1.9c0.2,0.3,0.4,0.6,0.8,0.8c0.3,0.2,0.7,0.3,1,0.3c0.6,0,1.2-0.3,1.4-0.9c0.1-0.3,0.2-0.6,0.2-1V70.6h3.3V83     c0,1.4-0.8,2.7-2.1,3.3c-0.7,0.3-1.5,0.5-2.3,0.5C27.6,86.8,26.9,86.7,26.1,86.4L26.1,86.4z"/>
		</g>
		<path id="Fill-26" class="st4" d="M151.1,72.6c-0.4,0.2-0.7,0.5-0.9,0.8c-0.2,0.4-0.4,0.8-0.5,1.2h5c0-0.4-0.2-0.8-0.4-1.2    c-0.4-0.7-1.2-1.1-2.1-1.1C151.8,72.3,151.4,72.4,151.1,72.6 M155.4,70.7c0.9,0.4,1.6,1.1,2,1.9c0.5,0.9,0.7,1.9,0.7,2.9V76    c0,0.1,0,0.3,0,0.4h-8.3c0.1,0.5,0.3,0.9,0.6,1.3c0.3,0.4,0.8,0.7,1.2,0.8c0.5,0.2,1.1,0.3,1.6,0.3c0.7,0,1.3-0.1,1.9-0.4    c0.5-0.2,1-0.5,1.3-1l2,1.3c-0.5,0.8-1.2,1.3-2.1,1.7c-1.1,0.4-2.2,0.6-3.4,0.6c-1.2,0-2.3-0.2-3.4-0.7c-1-0.5-1.8-1.1-2.3-2    c-0.6-0.9-0.9-1.9-0.9-2.9c0-1,0.2-2,0.8-2.8c0.5-0.8,1.3-1.5,2.1-1.9c1-0.5,2-0.7,3.1-0.7C153.4,70,154.4,70.2,155.4,70.7"/>
		<path id="Fill-28" class="st4" d="M162.3,80.3c-0.9-0.4-1.7-1.1-2.2-2c-0.5-0.9-0.8-1.8-0.8-2.8c0-1,0.2-2,0.7-2.9    c0.5-0.8,1.2-1.5,2.1-2c0.9-0.5,1.9-0.7,3-0.7c0.8,0,1.7,0.2,2.4,0.5c0.7,0.3,1.4,0.7,1.9,1.3c0.5,0.5,0.9,1.2,1,1.9l-3,0.7    c-0.1-0.5-0.4-1-0.9-1.3c-0.4-0.3-0.9-0.5-1.5-0.5c-0.5,0-0.9,0.1-1.3,0.4c-0.4,0.3-0.7,0.6-0.9,1.1c-0.2,0.5-0.3,1-0.3,1.6    c0,0.5,0.1,1.1,0.4,1.6c0.2,0.4,0.6,0.8,1,1.1c0.9,0.5,1.9,0.5,2.8,0.1c0.4-0.2,0.7-0.5,1-0.8c0.3-0.3,0.4-0.7,0.5-1.2l3,0.4    c-0.1,0.8-0.5,1.6-1,2.2c-0.6,0.7-1.3,1.2-2.1,1.5C166.3,81.2,164.1,81.2,162.3,80.3L162.3,80.3z"/>
		<path id="Fill-30" class="st4" d="M175.6,81.5c-0.6-0.3-1.2-0.8-1.5-1.4c-0.4-0.7-0.5-1.4-0.5-2.1v-4.8h-2.2v-2.4h2.2v-3l3.4-0.7    l0,3.7h4.7v2.4h-4.7l0,4.3c0,0.5,0.2,1,0.5,1.4c0.3,0.3,0.8,0.5,1.3,0.5c0.5,0,1-0.1,1.4-0.4c0.4-0.3,0.8-0.7,1-1.2l1.2,1.9    c-0.4,0.7-1,1.3-1.7,1.7c-0.8,0.4-1.7,0.6-2.5,0.6C177.2,82,176.3,81.9,175.6,81.5"/>
		<polygon id="Fill-32" class="st4" points="102.3,90 105,90 110.8,103.1 116.6,90 119.3,90 119.3,105 117.4,105 117.4,92.6     111.8,105 109.8,105 104.2,92.6 104.2,105 102.3,105   "/>
		<path id="Fill-34" class="st4" d="M127.6,103.2c0.5-0.3,1-0.7,1.3-1.2c0.3-0.5,0.5-1.1,0.5-1.7v-0.7l-3.2,0.4    c-1.2,0.1-2,0.4-2.6,0.7c-0.5,0.3-0.7,0.7-0.8,1.2c0,0.5,0.3,1,0.8,1.2c0.6,0.3,1.3,0.5,2,0.5C126.4,103.6,127,103.4,127.6,103.2     M123.3,104.6c-0.6-0.2-1.1-0.6-1.5-1.1c-0.3-0.5-0.5-1-0.5-1.6c0-0.5,0.2-1.1,0.5-1.5c0.4-0.5,0.9-0.9,1.5-1.2    c0.9-0.4,1.8-0.6,2.7-0.7l2.6-0.3c0.2,0,0.5-0.1,0.6-0.3c0.2-0.1,0.2-0.3,0.2-0.5c0-0.4-0.1-0.8-0.4-1.1c-0.3-0.3-0.7-0.6-1.1-0.7    c-0.5-0.2-1-0.3-1.5-0.3c-0.6,0-1.2,0.1-1.7,0.4c-0.5,0.2-0.9,0.5-1.2,0.9c-0.3,0.3-0.4,0.7-0.5,1.1l-1.4-0.6    c0.1-0.6,0.4-1.1,0.8-1.6c0.5-0.5,1.1-0.9,1.7-1.2c0.8-0.3,1.6-0.5,2.4-0.4c0.8,0,1.6,0.1,2.4,0.5c0.7,0.3,1.2,0.7,1.6,1.3    c0.4,0.6,0.6,1.3,0.6,2v5.2c0,0.2,0,0.4,0.2,0.5c0.1,0.1,0.3,0.2,0.4,0.2c0.2,0,0.3-0.1,0.4-0.2c0.2-0.1,0.3-0.3,0.4-0.4l0.9,1    c-0.2,0.3-0.6,0.6-0.9,0.8c-0.4,0.2-0.8,0.3-1.2,0.3c-0.9,0-1.7-0.7-1.7-1.6c0-0.1,0-0.1,0-0.2v-0.4c-0.2,0.4-0.6,0.8-1,1.1    c-0.4,0.3-0.9,0.6-1.4,0.7c-0.5,0.2-1.1,0.3-1.7,0.3C124.7,105,123.9,104.9,123.3,104.6"/>
		<path id="Fill-36" class="st4" d="M134.3,94.4h1.5L136,96c0.4-0.6,0.9-1.1,1.6-1.4c0.7-0.3,1.4-0.5,2.2-0.5c0.8,0,1.7,0.2,2.4,0.6    c0.7,0.4,1.2,1,1.6,1.7c0.4,0.7,0.6,1.6,0.6,2.4v6.3h-1.7v-6.3c0-0.6-0.1-1.1-0.4-1.7c-0.2-0.5-0.6-0.9-1.1-1.1    c-0.5-0.3-1.1-0.4-1.6-0.4c-2,0-3.6,1.5-3.6,3.4v0.1v6.1h-1.7V94.4z"/>
		<path id="Fill-38" class="st4" d="M152.6,103.1c0.5-0.3,1-0.7,1.3-1.2c0.3-0.5,0.5-1.1,0.5-1.7v-0.7l-3.2,0.4    c-1.2,0.1-2,0.4-2.6,0.7c-0.5,0.3-0.7,0.7-0.8,1.2c0,0.5,0.3,1,0.8,1.2c0.6,0.3,1.3,0.5,2,0.5C151.3,103.6,152,103.4,152.6,103.1     M148.3,104.6c-0.6-0.2-1.1-0.6-1.5-1.1c-0.3-0.5-0.5-1-0.5-1.6c0-0.5,0.2-1.1,0.5-1.5c0.4-0.5,0.9-0.9,1.5-1.2    c0.9-0.4,1.8-0.6,2.7-0.7l2.6-0.3c0.2,0,0.5-0.1,0.6-0.3c0.2-0.1,0.2-0.3,0.2-0.5c0-0.4-0.1-0.8-0.4-1.1c-0.3-0.3-0.7-0.6-1.1-0.7    c-0.5-0.2-1-0.3-1.5-0.3c-0.6,0-1.2,0.1-1.7,0.4c-0.5,0.2-0.9,0.5-1.2,0.9c-0.3,0.3-0.4,0.7-0.5,1.1l-1.4-0.6    c0.1-0.6,0.3-1.1,0.8-1.6c0.5-0.5,1.1-0.9,1.7-1.2c0.8-0.3,1.6-0.5,2.4-0.4c0.8,0,1.6,0.1,2.3,0.5c0.7,0.3,1.2,0.7,1.6,1.3    c0.4,0.6,0.6,1.3,0.6,2v5.2c0,0.2,0,0.4,0.2,0.5c0.1,0.1,0.3,0.2,0.4,0.2c0.2,0,0.3-0.1,0.4-0.2c0.2-0.1,0.3-0.3,0.4-0.4l0.9,1    c-0.2,0.3-0.6,0.6-0.9,0.8c-0.4,0.2-0.8,0.3-1.2,0.3c-0.9,0-1.7-0.7-1.7-1.6c0,0,0-0.1,0-0.1v-0.4c-0.2,0.4-0.6,0.8-1,1.1    c-0.4,0.3-0.9,0.6-1.4,0.7c-0.5,0.2-1.1,0.3-1.7,0.3C149.7,105,148.9,104.9,148.3,104.6"/>
		<path id="Fill-40" class="st4" d="M166.8,103.7c0.6-0.4,1.1-0.9,1.4-1.6c0.3-0.7,0.5-1.5,0.5-2.2c0-0.8-0.2-1.6-0.5-2.3    c-0.3-0.7-0.8-1.2-1.4-1.6c-0.6-0.4-1.3-0.6-2-0.6c-1.5,0-2.8,0.8-3.5,2.2c-0.3,0.7-0.5,1.5-0.5,2.3c0,0.8,0.2,1.5,0.5,2.2    c0.3,0.6,0.8,1.2,1.4,1.6C164,104.5,165.5,104.5,166.8,103.7L166.8,103.7z M161.7,110.6c-0.8-0.3-1.5-0.7-2.1-1.2    c-0.6-0.5-1-1.1-1.3-1.8l1.4-1c0.2,0.6,0.5,1.1,0.9,1.5c0.5,0.5,1,0.8,1.6,1c0.7,0.3,1.4,0.4,2.1,0.4c0.8,0,1.6-0.2,2.3-0.6    c0.7-0.4,1.2-0.9,1.6-1.6c0.4-0.7,0.6-1.5,0.5-2.3v-1.5c-0.4,0.7-1,1.3-1.8,1.7c-0.7,0.4-1.5,0.6-2.3,0.6c-1,0-1.9-0.2-2.8-0.8    c-0.8-0.5-1.5-1.2-1.9-2.1c-0.5-0.9-0.7-2-0.7-3c0-1.1,0.2-2.1,0.7-3c0.9-1.8,2.7-2.9,4.7-2.9c1.7,0,3.2,0.8,4.1,2.2l0.2-1.8h1.5    v10.7c0,1.1-0.3,2.1-0.8,3.1c-0.5,0.9-1.2,1.6-2.1,2.1c-1,0.5-2,0.8-3.1,0.8C163.4,111,162.6,110.9,161.7,110.6L161.7,110.6z"/>
		<path id="Fill-42" class="st4" d="M175.9,95.8c-0.5,0.3-1,0.7-1.3,1.1c-0.3,0.5-0.6,1.1-0.7,1.7h7.3c-0.1-0.6-0.3-1.2-0.6-1.7    c-0.3-0.5-0.7-0.9-1.2-1.1c-0.5-0.3-1.1-0.4-1.7-0.4C177.1,95.4,176.5,95.5,175.9,95.8 M180.5,94.7c0.8,0.5,1.4,1.1,1.8,1.9    c0.4,0.9,0.7,1.8,0.7,2.8v0.3c0,0.1,0,0.2,0,0.3h-9c0.1,0.7,0.3,1.3,0.7,1.9c0.4,0.5,0.9,1,1.5,1.3c1.4,0.6,3,0.6,4.3-0.1    c0.6-0.3,1.1-0.8,1.5-1.4l1.4,0.5c-0.4,0.8-1.1,1.5-1.9,2c-1.9,1-4.3,1-6.2,0.1c-0.9-0.5-1.6-1.2-2.1-2c-1-1.8-1-3.9-0.1-5.7    c0.4-0.8,1.1-1.5,1.9-1.9c0.9-0.5,1.8-0.7,2.8-0.7C178.7,94,179.6,94.2,180.5,94.7"/>
		<path id="Fill-44" class="st4" d="M184.3,94.4h1.4l0.2,1.3c0.3-0.5,0.8-1,1.4-1.3c0.6-0.3,1.2-0.5,1.9-0.5c0.8,0,1.7,0.2,2.4,0.6    c0.7,0.4,1.2,0.9,1.5,1.6c0.3-0.7,0.9-1.2,1.5-1.6c2-1.2,4.7-0.6,5.9,1.3c0.1,0.1,0.1,0.2,0.2,0.3c0.4,0.7,0.6,1.6,0.6,2.4v6.3    h-1.7v-6.3c0-0.6-0.1-1.1-0.4-1.7c-0.2-0.5-0.6-0.9-1-1.1c-0.5-0.3-1-0.4-1.5-0.4c-0.6,0-1.1,0.1-1.6,0.4    c-0.5,0.3-0.9,0.7-1.1,1.1c-0.3,0.5-0.4,1.1-0.4,1.7v6.3h-1.7v-6.3c0-0.6-0.1-1.1-0.4-1.7c-0.2-0.5-0.6-0.8-1-1.1    c-0.5-0.3-1-0.4-1.5-0.4c-0.6,0-1.1,0.1-1.6,0.4c-0.5,0.3-0.8,0.7-1.1,1.1c-0.3,0.5-0.4,1.1-0.4,1.7v6.3h-1.7V94.4z"/>
		<path id="Fill-46" class="st4" d="M206.9,95.8c-0.5,0.3-1,0.7-1.3,1.1c-0.3,0.5-0.6,1.1-0.7,1.7h7.3c-0.1-0.6-0.3-1.2-0.6-1.7    c-0.3-0.5-0.7-0.9-1.2-1.1c-0.5-0.3-1.1-0.4-1.7-0.4C208.1,95.4,207.5,95.5,206.9,95.8L206.9,95.8z M211.5,94.7    c0.8,0.5,1.4,1.1,1.8,1.9c0.4,0.9,0.7,1.8,0.7,2.8v0.3c0,0.1,0,0.2,0,0.3h-9c0.1,0.7,0.3,1.3,0.7,1.9c0.4,0.5,0.9,1,1.5,1.3    c1.4,0.6,3,0.6,4.3-0.1c0.6-0.3,1.1-0.8,1.5-1.4l1.4,0.5c-0.4,0.8-1.1,1.6-1.9,2c-1.9,1-4.3,1-6.2,0.1c-0.9-0.5-1.6-1.2-2.1-2    c-0.5-0.9-0.8-1.9-0.8-2.9c0-1,0.2-1.9,0.7-2.8c0.4-0.8,1.1-1.5,1.9-1.9c0.9-0.5,1.8-0.7,2.8-0.7C209.7,94,210.7,94.2,211.5,94.7    L211.5,94.7z"/>
		<path id="Fill-48" class="st4" d="M217.3,94.4h1.5L219,96c0.4-0.6,0.9-1.1,1.6-1.4c0.7-0.3,1.4-0.5,2.2-0.5c0.8,0,1.7,0.2,2.4,0.6    c0.7,0.4,1.2,1,1.6,1.7c0.4,0.7,0.6,1.6,0.6,2.4v6.3h-1.7v-6.3c0-0.6-0.1-1.1-0.4-1.7c-0.2-0.5-0.6-0.9-1.1-1.1    c-0.5-0.3-1.1-0.4-1.6-0.4c-0.6,0-1.2,0.2-1.8,0.5c-0.5,0.3-1,0.7-1.3,1.2c-0.3,0.5-0.5,1.1-0.5,1.8v6.1h-1.7L217.3,94.4z"/>
		<g id="Group-52" transform="translate(202.000000, 25.000000)">
			<g id="Clip-51">
			</g>
			<defs>
				<filter id="Adobe_OpacityMaskFilter_1_" filterUnits="userSpaceOnUse" x="24.6" y="65.2" width="10.4" height="15.6">
					<feColorMatrix type="matrix" values="1 0 0 0 0  0 1 0 0 0  0 0 1 0 0  0 0 0 1 0"/>
				</filter>
			</defs>
			<mask maskUnits="userSpaceOnUse" x="24.6" y="65.2" width="10.4" height="15.6" id="mask-4_1_">
				<g class="st8">
					<polygon id="path-3_1_" class="st6" points="24.6,65.2 35,65.2 35,80.8 24.6,80.8      "/>
				</g>
			</mask>
			<path id="Fill-50" class="st9" d="M29,80.3c-0.5-0.3-1-0.7-1.3-1.2c-0.3-0.6-0.5-1.2-0.5-1.8v-6.9h-2.6V69h2.6v-3.4l1.8-0.4V69     h5.2v1.4H29v6.7c0,0.6,0.2,1.1,0.6,1.6c0.4,0.4,0.9,0.6,1.5,0.6c0.6,0,1.2-0.2,1.6-0.6c0.5-0.4,0.8-1,0.9-1.7l1.4,0.6     c-0.1,0.9-0.6,1.8-1.4,2.3c-0.8,0.6-1.7,0.9-2.7,0.9C30.2,80.8,29.6,80.7,29,80.3"/>
		</g>
		<g id="Clip-54">
		</g>
		<defs>
			<filter id="Adobe_OpacityMaskFilter_2_" filterUnits="userSpaceOnUse" x="102.3" y="114" width="2" height="15">
				<feColorMatrix type="matrix" values="1 0 0 0 0  0 1 0 0 0  0 0 1 0 0  0 0 0 1 0"/>
			</filter>
		</defs>
		<mask maskUnits="userSpaceOnUse" x="102.3" y="114" width="2" height="15" id="mask-6_1_">
			<g class="st10">
				<polygon id="path-5_1_" class="st6" points="24.3,130 237.3,130 237.3,66 24.3,66     "/>
			</g>
		</mask>
		<polygon id="Fill-53" class="st11" points="102.3,129 104.3,129 104.3,114 102.3,114   "/>
		<defs>
			<filter id="Adobe_OpacityMaskFilter_3_" filterUnits="userSpaceOnUse" x="106.3" y="118" width="10" height="11">
				<feColorMatrix type="matrix" values="1 0 0 0 0  0 1 0 0 0  0 0 1 0 0  0 0 0 1 0"/>
			</filter>
		</defs>
		<mask maskUnits="userSpaceOnUse" x="106.3" y="118" width="10" height="11" id="mask-6_2_">
			<g class="st12">
				<polygon id="path-5_2_" class="st6" points="24.3,130 237.3,130 237.3,66 24.3,66     "/>
			</g>
		</mask>
		<path id="Fill-55" class="st13" d="M106.3,118.4h1.5l0.2,1.6c0.4-0.6,0.9-1.1,1.6-1.4c0.7-0.3,1.4-0.5,2.2-0.5    c0.8,0,1.7,0.2,2.4,0.6c0.7,0.4,1.2,1,1.6,1.7c0.4,0.7,0.6,1.6,0.6,2.4v6.3h-1.7v-6.3c0-0.6-0.1-1.1-0.4-1.7    c-0.2-0.5-0.6-0.9-1.1-1.1c-0.5-0.3-1.1-0.4-1.6-0.4c-0.6,0-1.2,0.2-1.8,0.4c-0.5,0.3-1,0.7-1.3,1.2c-0.3,0.5-0.5,1.1-0.5,1.8v6.1    h-1.7V118.4z"/>
		<defs>
			<filter id="Adobe_OpacityMaskFilter_4_" filterUnits="userSpaceOnUse" x="118.3" y="118" width="10" height="11">
				<feColorMatrix type="matrix" values="1 0 0 0 0  0 1 0 0 0  0 0 1 0 0  0 0 0 1 0"/>
			</filter>
		</defs>
		<mask maskUnits="userSpaceOnUse" x="118.3" y="118" width="10" height="11" id="mask-6_3_">
			<g class="st14">
				<polygon id="path-5_3_" class="st6" points="24.3,130 237.3,130 237.3,66 24.3,66     "/>
			</g>
		</mask>
		<path id="Fill-56" class="st15" d="M121,128.5c-0.7-0.3-1.4-0.7-1.9-1.2c-0.5-0.5-0.8-1.1-0.9-1.8l1.7-0.3c0,0.5,0.2,0.9,0.6,1.2    c0.3,0.4,0.8,0.7,1.3,0.9c0.6,0.2,1.2,0.3,1.8,0.3c0.5,0,1.1-0.1,1.6-0.2c0.4-0.1,0.8-0.4,1.1-0.6c0.3-0.2,0.4-0.6,0.4-0.9    c0-0.3-0.2-0.6-0.4-0.9c-0.3-0.2-0.7-0.4-1.1-0.5c-0.4-0.1-1-0.2-1.7-0.3c-0.8-0.1-1.6-0.3-2.4-0.5c-0.6-0.2-1.1-0.5-1.5-0.9    c-0.4-0.5-0.7-1-0.6-1.6c0-0.6,0.2-1.1,0.5-1.6c0.4-0.5,0.9-0.9,1.5-1.1c0.7-0.3,1.4-0.4,2.1-0.4c0.7,0,1.4,0.1,2.1,0.4    c0.6,0.2,1.1,0.6,1.6,1c0.4,0.4,0.7,0.9,0.8,1.4l-1.6,0.4c-0.1-0.5-0.4-1-0.9-1.3c-0.6-0.4-1.3-0.5-2-0.5c-0.4,0-0.9,0.1-1.2,0.2    c-0.4,0.1-0.7,0.4-0.9,0.6c-0.2,0.2-0.3,0.6-0.3,0.9c0,0.3,0.1,0.6,0.4,0.8c0.2,0.2,0.5,0.3,0.8,0.4c0.2,0.1,0.9,0.2,2.1,0.4    c0.8,0.1,1.5,0.3,2.3,0.6c0.6,0.2,1.1,0.5,1.6,0.9c0.4,0.4,0.6,1,0.6,1.5c0,0.6-0.2,1.2-0.6,1.7c-0.4,0.5-1,0.9-1.7,1.2    c-0.8,0.3-1.6,0.4-2.4,0.4C122.7,129,121.8,128.8,121,128.5"/>
		<defs>
			<filter id="Adobe_OpacityMaskFilter_5_" filterUnits="userSpaceOnUse" x="128.3" y="115" width="10" height="15">
				<feColorMatrix type="matrix" values="1 0 0 0 0  0 1 0 0 0  0 0 1 0 0  0 0 0 1 0"/>
			</filter>
		</defs>
		<mask maskUnits="userSpaceOnUse" x="128.3" y="115" width="10" height="15" id="mask-6_4_">
			<g class="st16">
				<polygon id="path-5_4_" class="st6" points="24.3,130 237.3,130 237.3,66 24.3,66     "/>
			</g>
		</mask>
		<path id="Fill-57" class="st17" d="M132.5,129.6c-0.5-0.3-1-0.7-1.3-1.2c-0.3-0.5-0.5-1.1-0.4-1.7V120h-2.5v-1.4h2.5v-3.2l1.7-0.4    v3.6h5v1.4h-5v6.4c0,0.6,0.2,1.1,0.5,1.5c0.4,0.4,0.9,0.6,1.5,0.6c0.6,0,1.1-0.2,1.6-0.6c0.5-0.4,0.8-1,0.9-1.6l1.4,0.6    c-0.1,0.9-0.6,1.7-1.4,2.2c-0.7,0.6-1.7,0.9-2.6,0.9C133.7,130,133.1,129.9,132.5,129.6"/>
		<defs>
			<filter id="Adobe_OpacityMaskFilter_6_" filterUnits="userSpaceOnUse" x="139.3" y="113" width="3" height="16">
				<feColorMatrix type="matrix" values="1 0 0 0 0  0 1 0 0 0  0 0 1 0 0  0 0 0 1 0"/>
			</filter>
		</defs>
		<mask maskUnits="userSpaceOnUse" x="139.3" y="113" width="3" height="16" id="mask-6_5_">
			<g class="st18">
				<polygon id="path-5_5_" class="st6" points="24.3,130 237.3,130 237.3,66 24.3,66     "/>
			</g>
		</mask>
		<path id="Fill-58" class="st19" d="M139.7,117.6h2V129h-2L139.7,117.6z M139.7,115.2c-0.3-0.2-0.4-0.6-0.4-0.9    c0-0.3,0.1-0.7,0.4-0.9c0.3-0.2,0.7-0.4,1.1-0.3c0.4,0,0.8,0.1,1.1,0.4c0.3,0.2,0.4,0.6,0.4,0.9c0,0.3-0.1,0.7-0.4,0.9    c-0.3,0.2-0.7,0.4-1.1,0.3C140.4,115.5,140,115.4,139.7,115.2L139.7,115.2z"/>
		<defs>
			<filter id="Adobe_OpacityMaskFilter_7_" filterUnits="userSpaceOnUse" x="142.3" y="115" width="10" height="15">
				<feColorMatrix type="matrix" values="1 0 0 0 0  0 1 0 0 0  0 0 1 0 0  0 0 0 1 0"/>
			</filter>
		</defs>
		<mask maskUnits="userSpaceOnUse" x="142.3" y="115" width="10" height="15" id="mask-6_6_">
			<g class="st20">
				<polygon id="path-5_6_" class="st6" points="24.3,130 237.3,130 237.3,66 24.3,66     "/>
			</g>
		</mask>
		<path id="Fill-59" class="st21" d="M146.5,129.6c-0.5-0.3-1-0.7-1.3-1.2c-0.3-0.5-0.5-1.1-0.4-1.7V120h-2.5v-1.4h2.5v-3.2l1.7-0.4    v3.6h5.1v1.4h-5.1v6.5c0,0.6,0.2,1.1,0.5,1.5c0.4,0.4,0.9,0.6,1.5,0.6c0.6,0,1.1-0.2,1.6-0.6c0.5-0.4,0.8-1,0.9-1.6l1.4,0.5    c-0.1,0.9-0.6,1.7-1.4,2.2c-0.7,0.6-1.7,0.9-2.6,0.9C147.7,130,147.1,129.9,146.5,129.6"/>
		<defs>
			<filter id="Adobe_OpacityMaskFilter_8_" filterUnits="userSpaceOnUse" x="153.3" y="119" width="10" height="11">
				<feColorMatrix type="matrix" values="1 0 0 0 0  0 1 0 0 0  0 0 1 0 0  0 0 0 1 0"/>
			</filter>
		</defs>
		<mask maskUnits="userSpaceOnUse" x="153.3" y="119" width="10" height="11" id="mask-6_7_">
			<g class="st22">
				<polygon id="path-5_7_" class="st6" points="24.3,130 237.3,130 237.3,66 24.3,66     "/>
			</g>
		</mask>
		<path id="Fill-60" class="st23" d="M155.5,129.4c-0.7-0.4-1.2-1-1.6-1.7c-0.4-0.8-0.6-1.6-0.6-2.4V119h1.7v6.3    c0,0.6,0.1,1.1,0.4,1.7c0.2,0.5,0.6,0.9,1.1,1.1c0.5,0.3,1.1,0.4,1.6,0.4c0.6,0,1.2-0.2,1.8-0.5c0.5-0.3,1-0.7,1.3-1.2    c0.3-0.5,0.5-1.1,0.5-1.8V119h1.7v10.6h-1.5l-0.2-1.6c-0.4,0.6-0.9,1.1-1.6,1.4c-0.7,0.3-1.4,0.5-2.2,0.5    C157,130,156.2,129.8,155.5,129.4"/>
		<defs>
			<filter id="Adobe_OpacityMaskFilter_9_" filterUnits="userSpaceOnUse" x="164.3" y="115" width="10" height="15">
				<feColorMatrix type="matrix" values="1 0 0 0 0  0 1 0 0 0  0 0 1 0 0  0 0 0 1 0"/>
			</filter>
		</defs>
		<mask maskUnits="userSpaceOnUse" x="164.3" y="115" width="10" height="15" id="mask-6_8_">
			<g class="st24">
				<polygon id="path-5_8_" class="st6" points="24.3,130 237.3,130 237.3,66 24.3,66     "/>
			</g>
		</mask>
		<path id="Fill-61" class="st25" d="M168.5,129.6c-0.5-0.3-1-0.7-1.3-1.2c-0.3-0.5-0.5-1.1-0.4-1.7V120h-2.5v-1.4h2.5v-3.2l1.7-0.4    v3.6h5.1v1.4h-5.1v6.5c0,0.6,0.2,1.1,0.5,1.5c0.4,0.4,0.9,0.6,1.5,0.6c0.6,0,1.1-0.2,1.6-0.6c0.5-0.4,0.8-1,0.9-1.6l1.4,0.5    c-0.1,0.9-0.6,1.7-1.4,2.2c-0.7,0.6-1.7,0.9-2.6,0.9C169.7,130,169.1,129.9,168.5,129.6"/>
		<defs>
			<filter id="Adobe_OpacityMaskFilter_10_" filterUnits="userSpaceOnUse" x="175.3" y="118" width="11" height="11">
				<feColorMatrix type="matrix" values="1 0 0 0 0  0 1 0 0 0  0 0 1 0 0  0 0 0 1 0"/>
			</filter>
		</defs>
		<mask maskUnits="userSpaceOnUse" x="175.3" y="118" width="11" height="11" id="mask-6_9_">
			<g class="st26">
				<polygon id="path-5_9_" class="st6" points="24.3,130 237.3,130 237.3,66 24.3,66     "/>
			</g>
		</mask>
		<path id="Fill-62" class="st27" d="M178.9,119.8c-0.5,0.3-1,0.7-1.3,1.2c-0.3,0.5-0.6,1.1-0.7,1.7h7.3c-0.1-0.6-0.3-1.2-0.6-1.7    c-0.3-0.5-0.7-0.9-1.2-1.1c-0.5-0.3-1.1-0.4-1.7-0.4C180.1,119.4,179.5,119.6,178.9,119.8L178.9,119.8z M183.4,118.7    c0.8,0.5,1.4,1.1,1.8,1.9c0.4,0.9,0.7,1.8,0.7,2.8v0.3c0,0.1,0,0.2,0,0.3h-9c0.1,0.7,0.3,1.3,0.7,1.9c0.4,0.5,0.9,1,1.5,1.3    c1.4,0.6,3,0.6,4.3-0.1c0.6-0.3,1.1-0.8,1.5-1.4l1.4,0.5c-0.4,0.8-1.1,1.5-1.9,2c-1.9,1-4.3,1-6.2,0.1c-0.9-0.5-1.6-1.2-2.1-2    c-0.5-0.9-0.8-1.9-0.8-2.9c0-1,0.2-1.9,0.7-2.8c0.4-0.8,1.1-1.5,1.9-1.9c0.9-0.5,1.8-0.7,2.8-0.7    C181.7,118,182.6,118.2,183.4,118.7L183.4,118.7z"/>
		<defs>
			<filter id="Adobe_OpacityMaskFilter_11_" filterUnits="userSpaceOnUse" x="187.3" y="126" width="4" height="4">
				<feColorMatrix type="matrix" values="1 0 0 0 0  0 1 0 0 0  0 0 1 0 0  0 0 0 1 0"/>
			</filter>
		</defs>
		<mask maskUnits="userSpaceOnUse" x="187.3" y="126" width="4" height="4" id="mask-6_10_">
			<g class="st28">
				<polygon id="path-5_10_" class="st6" points="24.3,130 237.3,130 237.3,66 24.3,66     "/>
			</g>
		</mask>
		<path id="Fill-63" class="st29" d="M190.2,129.6c0.3-0.2,0.5-0.4,0.6-0.6c0.3-0.6,0.3-1.3,0-1.8c-0.2-0.3-0.4-0.5-0.6-0.7    c-0.3-0.2-0.6-0.2-0.9-0.2c-0.3,0-0.6,0.1-0.9,0.2c-0.3,0.1-0.5,0.4-0.6,0.6c-0.2,0.3-0.2,0.6-0.2,0.9c0,0.3,0.1,0.6,0.2,0.9    c0.2,0.3,0.4,0.5,0.6,0.6c0.3,0.2,0.6,0.2,0.9,0.2C189.6,129.8,189.9,129.7,190.2,129.6 M188.3,129.7c-0.3-0.2-0.5-0.4-0.7-0.7    c-0.2-0.3-0.3-0.7-0.3-1c0-0.4,0.1-0.7,0.3-1c0.2-0.3,0.4-0.5,0.7-0.7c0.3-0.2,0.7-0.3,1-0.3c0.4,0,0.7,0.1,1,0.3    c0.3,0.2,0.5,0.4,0.7,0.7c0.2,0.3,0.3,0.7,0.3,1c0,0.4-0.1,0.7-0.3,1c-0.2,0.3-0.4,0.5-0.7,0.7c-0.3,0.2-0.7,0.3-1,0.3    C188.9,130,188.6,129.9,188.3,129.7"/>
		<defs>
			<filter id="Adobe_OpacityMaskFilter_12_" filterUnits="userSpaceOnUse" x="188.3" y="127" width="2" height="2">
				<feColorMatrix type="matrix" values="1 0 0 0 0  0 1 0 0 0  0 0 1 0 0  0 0 0 1 0"/>
			</filter>
		</defs>
		<mask maskUnits="userSpaceOnUse" x="188.3" y="127" width="2" height="2" id="mask-6_11_">
			<g class="st30">
				<polygon id="path-5_11_" class="st6" points="24.3,130 237.3,130 237.3,66 24.3,66     "/>
			</g>
		</mask>
		<path id="Fill-64" class="st31" d="M188.7,127.9v-0.7h0.6c0.2,0,0.3,0,0.4,0.1c0.1,0.1,0.2,0.1,0.2,0.2c0,0.1-0.1,0.2-0.2,0.2    c-0.1,0.1-0.3,0.1-0.4,0.1H188.7z M190.3,129l-0.7-0.8c0.1,0,0.1,0,0.2-0.1c0.3-0.1,0.4-0.3,0.4-0.5c0-0.1,0-0.2-0.1-0.3    c-0.1-0.1-0.2-0.2-0.3-0.2c-0.1-0.1-0.3-0.1-0.4-0.1h-1.1v2h0.4v-0.8h0.5l0.6,0.8L190.3,129z"/>
	</g>
</g>
</svg>