<!-- https://iconape.com/agile-software-logo-logo-icon-svg-png.html -->
<svg xmlns="http://www.w3.org/2000/svg" xmlns:xlink="http://www.w3.org/1999/xlink" width="194pt" height="194pt" viewBox="0 0 194 194" version="1.1">
<g id="surface1">
<!-- <path style=" stroke:none;fill-rule:evenodd;fill:rgb(100%,100%,100%);fill-opacity:1;" d="M 0.257813 0.675781 L 193.015625 0.675781 L 193.015625 193.433594 L 0.257813 193.433594 L 0.257813 0.675781 "/> -->
<path style=" stroke:none;fill-rule:evenodd;fill:rgb(80.799866%,6.298828%,25.498962%);fill-opacity:1;" d="M 161.667969 39.511719 C 162.277344 38.898438 162.523438 38.167969 162.644531 37.3125 C 162.523438 36.457031 162.277344 35.726563 161.667969 35.113281 C 161.058594 34.503906 160.324219 34.136719 159.589844 34.136719 C 158.613281 34.136719 157.882813 34.503906 157.269531 35.113281 C 156.660156 35.726563 156.292969 36.457031 156.414063 37.3125 C 156.292969 38.167969 156.660156 38.898438 157.269531 39.511719 C 157.882813 40.121094 158.613281 40.367188 159.589844 40.367188 C 160.324219 40.367188 161.058594 40.121094 161.667969 39.511719 "/>
<path style=" stroke:none;fill-rule:evenodd;fill:rgb(80.799866%,6.298828%,25.498962%);fill-opacity:1;" d="M 175.953125 41.585938 C 175.46875 41.097656 174.855469 40.855469 174.246094 40.855469 C 173.511719 40.855469 172.902344 41.097656 172.414063 41.585938 C 171.925781 42.074219 171.679688 42.6875 171.679688 43.417969 C 171.679688 44.027344 171.925781 44.640625 172.414063 45.25 C 172.902344 45.738281 173.511719 45.859375 174.246094 45.859375 C 174.855469 45.859375 175.46875 45.738281 175.953125 45.25 C 176.445313 44.640625 176.6875 44.027344 176.6875 43.417969 C 176.6875 42.6875 176.445313 42.074219 175.953125 41.585938 "/>
<path style=" stroke:none;fill-rule:evenodd;fill:rgb(80.799866%,6.298828%,25.498962%);fill-opacity:1;" d="M 106.46875 123.039063 C 105.003906 121.574219 103.292969 120.84375 101.21875 120.84375 C 99.265625 120.84375 97.554688 121.574219 96.089844 123.039063 C 94.621094 124.507813 93.890625 126.214844 93.890625 128.171875 C 93.890625 130.246094 94.621094 131.957031 96.089844 133.421875 C 97.554688 134.886719 99.265625 135.621094 101.21875 135.621094 C 103.292969 135.621094 105.003906 134.886719 106.46875 133.421875 C 107.933594 131.957031 108.546875 130.246094 108.667969 128.171875 C 108.546875 126.214844 107.933594 124.507813 106.46875 123.039063 "/>
<path style=" stroke:none;fill-rule:evenodd;fill:rgb(80.799866%,6.298828%,25.498962%);fill-opacity:1;" d="M 85.097656 139.527344 C 83.386719 139.527344 82.042969 140.136719 80.945313 141.359375 C 79.722656 142.457031 79.113281 143.679688 79.234375 145.265625 C 79.113281 146.855469 79.722656 148.320313 80.945313 149.417969 C 82.042969 150.519531 83.386719 151.128906 85.097656 151.128906 C 86.683594 151.128906 88.027344 150.519531 89.25 149.417969 C 90.347656 148.320313 90.835938 146.855469 90.835938 145.265625 C 90.835938 143.679688 90.347656 142.457031 89.25 141.359375 C 88.027344 140.136719 86.683594 139.527344 85.097656 139.527344 "/>
<path style=" stroke:none;fill-rule:evenodd;fill:rgb(80.799866%,6.298828%,25.498962%);fill-opacity:1;" d="M 26.601563 143.191406 C 26.113281 143.679688 25.746094 144.289063 25.746094 145.023438 C 25.746094 145.632813 26.113281 146.242188 26.601563 146.730469 C 27.089844 147.222656 27.578125 147.464844 28.3125 147.464844 C 28.921875 147.464844 29.65625 147.222656 30.144531 146.730469 C 30.632813 146.242188 30.875 145.632813 30.875 145.023438 C 30.875 144.289063 30.632813 143.679688 30.144531 143.191406 C 29.65625 142.703125 28.921875 142.457031 28.3125 142.457031 C 27.578125 142.457031 27.089844 142.703125 26.601563 143.191406 "/>
<path style=" stroke:none;fill-rule:evenodd;fill:rgb(80.799866%,6.298828%,25.498962%);fill-opacity:1;" d="M 45.410156 148.6875 C 44.796875 147.953125 43.941406 147.710938 42.964844 147.710938 C 42.109375 147.710938 41.257813 147.953125 40.644531 148.6875 C 40.035156 149.296875 39.667969 150.152344 39.667969 151.007813 C 39.667969 151.984375 40.035156 152.714844 40.644531 153.449219 C 41.257813 154.058594 42.109375 154.304688 42.964844 154.304688 C 43.941406 154.304688 44.796875 154.058594 45.410156 153.449219 C 46.019531 152.714844 46.386719 151.984375 46.261719 151.007813 C 46.386719 150.152344 46.019531 149.296875 45.410156 148.6875 "/>
<path style=" stroke:none;fill-rule:evenodd;fill:rgb(80.799866%,6.298828%,25.498962%);fill-opacity:1;" d="M 60.671875 155.769531 C 61.40625 156.503906 62.382813 156.867188 63.480469 156.992188 C 64.460938 156.867188 65.4375 156.503906 66.167969 155.769531 C 67.023438 155.035156 67.269531 154.058594 67.269531 153.082031 C 67.269531 151.984375 67.023438 151.007813 66.167969 150.273438 C 65.4375 149.542969 64.460938 149.175781 63.480469 149.175781 C 62.382813 149.175781 61.40625 149.542969 60.671875 150.273438 C 59.941406 151.007813 59.574219 151.984375 59.574219 153.082031 C 59.574219 154.058594 59.941406 155.035156 60.671875 155.769531 "/>
<path style=" stroke:none;fill-rule:evenodd;fill:rgb(80.799866%,6.298828%,25.498962%);fill-opacity:1;" d="M 141.761719 32.550781 C 141.027344 31.816406 140.175781 31.449219 139.074219 31.449219 C 137.976563 31.449219 136.996094 31.816406 136.265625 32.550781 C 135.53125 33.28125 135.164063 34.257813 135.164063 35.234375 C 135.164063 36.335938 135.53125 37.3125 136.265625 38.046875 C 136.996094 38.777344 137.976563 39.144531 139.074219 39.144531 C 140.175781 39.144531 141.027344 38.777344 141.761719 38.046875 C 142.492188 37.3125 142.980469 36.335938 142.980469 35.234375 C 142.980469 34.257813 142.492188 33.28125 141.761719 32.550781 "/>
<path style=" stroke:none;fill-rule:evenodd;fill:rgb(80.799866%,6.298828%,25.498962%);fill-opacity:1;" d="M 121.613281 38.898438 C 120.390625 37.679688 119.046875 37.191406 117.460938 37.191406 C 115.871094 37.191406 114.527344 37.679688 113.308594 38.898438 C 112.207031 40 111.597656 41.464844 111.597656 43.050781 C 111.597656 44.640625 112.207031 45.984375 113.308594 47.082031 C 114.527344 48.179688 115.871094 48.789063 117.460938 48.789063 C 119.046875 48.789063 120.390625 48.179688 121.613281 47.082031 C 122.710938 45.984375 123.320313 44.640625 123.320313 43.050781 C 123.320313 41.464844 122.710938 40 121.613281 38.898438 "/>
<path style=" stroke:none;fill-rule:evenodd;fill:rgb(80.799866%,6.298828%,25.498962%);fill-opacity:1;" d="M 106.46875 54.898438 C 105.003906 53.433594 103.292969 52.699219 101.21875 52.699219 C 99.265625 52.699219 97.554688 53.433594 95.964844 54.898438 C 94.621094 56.363281 93.890625 58.074219 93.890625 60.148438 C 93.890625 62.101563 94.621094 63.8125 95.964844 65.277344 C 97.554688 66.742188 99.265625 67.476563 101.21875 67.476563 C 103.292969 67.476563 105.003906 66.742188 106.347656 65.277344 C 107.933594 63.8125 108.667969 62.101563 108.667969 60.148438 C 108.667969 58.074219 107.933594 56.363281 106.46875 54.898438 "/>
<path style=" stroke:none;fill-rule:evenodd;fill:rgb(0%,29.798889%,57.299805%);fill-opacity:1;" d="M 124.785156 61.859375 C 121.855469 63.078125 119.046875 64.546875 116.238281 65.765625 L 116.238281 102.523438 C 116.117188 109.730469 121.613281 113.394531 132.847656 113.394531 L 132.847656 107.652344 C 130.402344 107.652344 128.570313 107.164063 127.105469 106.066406 C 125.519531 104.84375 124.785156 103.378906 124.785156 101.425781 L 124.785156 61.859375 "/>
<path style=" stroke:none;fill-rule:evenodd;fill:rgb(0%,29.798889%,57.299805%);fill-opacity:1;" d="M 156.660156 76.023438 C 150.675781 76.023438 145.546875 77.613281 141.273438 80.785156 C 136.386719 84.449219 133.824219 89.214844 133.945313 95.074219 C 133.945313 100.816406 136.386719 105.332031 141.027344 108.753906 C 145.304688 111.804688 150.433594 113.394531 156.539063 113.394531 C 160.691406 113.394531 164.476563 112.90625 168.015625 112.050781 C 170.703125 111.316406 172.78125 110.460938 177.542969 107.898438 L 174 103.257813 C 167.164063 106.921875 163.132813 107.898438 158.125 107.898438 C 153.851563 107.898438 150.308594 106.921875 147.746094 104.96875 C 144.570313 102.769531 142.980469 99.59375 142.980469 95.320313 L 177.785156 95.320313 C 178.152344 94.097656 178.398438 92.753906 178.398438 91.410156 C 178.398438 86.769531 176.566406 83.109375 172.78125 80.300781 C 168.871094 77.488281 163.5 76.023438 156.660156 76.023438 Z M 147.378906 84.085938 C 149.941406 82.253906 153.117188 81.398438 157.027344 81.398438 C 161.058594 81.398438 164.355469 82.375 166.675781 84.207031 C 168.871094 85.914063 169.972656 88.113281 169.972656 90.679688 L 143.226563 90.679688 C 143.59375 88.113281 144.9375 85.914063 147.378906 84.085938 "/>
<path style=" stroke:none;fill-rule:evenodd;fill:rgb(0%,29.798889%,57.299805%);fill-opacity:1;" d="M 9.382813 79.566406 L 13.046875 84.9375 C 15.855469 82.742188 20.007813 81.640625 25.378906 81.640625 C 32.339844 81.640625 35.761719 84.574219 35.761719 90.433594 C 33.441406 89.824219 31.484375 89.578125 29.65625 89.578125 C 23.058594 89.578125 17.566406 90.800781 13.414063 93.367188 C 9.136719 95.808594 6.941406 98.984375 6.941406 102.648438 C 6.941406 105.699219 8.285156 108.265625 11.09375 110.339844 C 13.777344 112.417969 17.078125 113.394531 20.863281 113.394531 C 27.945313 113.394531 33.195313 111.683594 36.617188 108.507813 C 37.46875 110.21875 38.570313 111.441406 40.402344 112.171875 C 42.109375 113.027344 44.675781 113.394531 48.21875 113.394531 L 48.21875 110.097656 C 45.652344 108.996094 44.429688 106.921875 44.429688 103.867188 L 44.429688 90.921875 C 44.429688 85.671875 42.84375 81.886719 39.667969 79.445313 C 36.492188 77.125 31.363281 76.023438 24.402344 76.023438 C 21.71875 76.023438 19.03125 76.390625 16.222656 77.125 C 13.289063 77.734375 11.09375 78.589844 9.382813 79.566406 Z M 30.144531 94.34375 C 31.121094 94.34375 33.074219 94.585938 35.761719 94.953125 L 35.761719 103.746094 C 32.464844 106.796875 28.675781 108.265625 24.402344 108.265625 C 18.417969 108.265625 15.488281 106.433594 15.488281 102.769531 C 15.488281 100.449219 16.832031 98.496094 19.519531 96.785156 C 22.207031 95.199219 25.867188 94.34375 30.144531 94.34375 "/>
<path style=" stroke:none;fill-rule:evenodd;fill:rgb(0%,29.798889%,57.299805%);fill-opacity:1;" d="M 55.300781 79.6875 C 51.882813 82.253906 50.046875 85.429688 50.171875 89.09375 C 50.171875 95.074219 53.589844 99.226563 60.308594 101.546875 C 57.863281 102.035156 55.910156 102.648438 54.324219 103.625 C 52.734375 104.601563 51.882813 105.699219 51.882813 106.921875 C 51.882813 110.828125 55.300781 112.78125 62.140625 112.78125 C 63.605469 112.660156 65.558594 112.539063 68.121094 112.171875 C 70.566406 111.804688 72.273438 111.683594 73.25 111.683594 C 78.992188 111.683594 81.800781 113.027344 81.800781 115.957031 C 81.679688 117.421875 80.578125 118.644531 78.382813 119.742188 C 76.183594 120.71875 73.128906 121.210938 69.34375 121.210938 C 65.070313 121.210938 60.429688 119.867188 55.421875 117.421875 L 50.78125 122.550781 C 52.855469 123.773438 55.667969 124.75 59.207031 125.605469 C 62.628906 126.460938 65.925781 126.828125 68.976563 126.828125 C 75.082031 126.828125 80.210938 125.847656 84.121094 123.773438 C 88.152344 121.699219 90.105469 119.011719 90.105469 115.714844 C 90.105469 112.78125 88.761719 110.339844 86.195313 108.628906 C 83.511719 107.042969 79.722656 106.1875 75.082031 106.1875 C 73.738281 106.1875 71.664063 106.308594 68.855469 106.675781 C 66.167969 107.042969 64.214844 107.164063 62.871094 107.164063 C 59.941406 107.164063 58.476563 106.675781 58.476563 105.824219 C 58.476563 105.089844 59.207031 104.601563 60.671875 104.234375 C 62.015625 103.746094 63.117188 103.5 63.96875 103.5 L 71.054688 102.890625 C 75.9375 102.523438 79.96875 101.179688 83.023438 98.617188 C 86.074219 96.175781 87.539063 93.121094 87.539063 89.457031 C 87.539063 86.039063 86.441406 83.230469 84.363281 81.152344 L 89.371094 78.222656 L 83.875 74.316406 L 79.601563 78.101563 C 76.792969 76.757813 73.128906 76.023438 68.367188 76.023438 C 63.238281 76.023438 58.839844 77.246094 55.300781 79.6875 Z M 61.652344 83.472656 C 63.605469 81.886719 66.046875 81.03125 68.976563 81.152344 C 71.785156 81.03125 73.984375 81.886719 75.9375 83.472656 C 77.769531 85.0625 78.746094 87.015625 78.746094 89.214844 C 78.746094 91.777344 77.890625 93.855469 76.058594 95.5625 C 74.351563 97.152344 72.03125 97.882813 68.976563 97.882813 C 65.925781 97.882813 63.480469 97.152344 61.652344 95.441406 C 59.820313 93.855469 58.839844 91.65625 58.964844 89.214844 C 58.839844 87.015625 59.820313 85.0625 61.652344 83.472656 "/>
<path style=" stroke:none;fill-rule:evenodd;fill:rgb(0%,29.798889%,57.299805%);fill-opacity:1;" d="M 107.324219 76.636719 L 92.179688 76.636719 L 92.179688 82.007813 L 98.773438 82.007813 L 98.773438 112.78125 L 107.324219 112.78125 L 107.324219 76.636719 "/>
<path style=" stroke:none;fill-rule:evenodd;fill:rgb(0%,29.798889%,57.299805%);fill-opacity:1;" d="M 181.695313 91.65625 L 181.695313 95.199219 L 182.0625 95.199219 L 182.0625 91.65625 L 182.914063 91.65625 L 182.914063 91.410156 L 180.839844 91.410156 L 180.839844 91.65625 L 181.695313 91.65625 "/>
<path style=" stroke:none;fill-rule:evenodd;fill:rgb(0%,29.798889%,57.299805%);fill-opacity:1;" d="M 183.769531 95.199219 L 183.402344 95.199219 L 183.402344 91.410156 L 184.015625 91.410156 L 184.871094 94.710938 L 185.847656 91.410156 L 186.335938 91.410156 L 186.335938 95.199219 L 185.96875 95.199219 L 185.96875 91.65625 L 185.113281 95.199219 L 184.746094 95.199219 L 183.769531 91.65625 L 183.769531 95.199219 "/>
</g>
</svg>